<mxfile host="app.diagrams.net" modified="2023-12-01T14:37:11.031Z" agent="Mozilla/5.0 (Windows NT 10.0; Win64; x64; rv:120.0) Gecko/20100101 Firefox/120.0" version="22.1.5" etag="YB2jNieJikRst0tvVRt3" type="github">
  <diagram name="Page-1" id="GnNX0Ga8m4OdC7NxqNOG">
    <mxGraphModel>
      <root>
        <mxCell id="0" />
        <mxCell id="1" parent="0" />
      </root>
    </mxGraphModel>
  </diagram>
</mxfile>
